<svg width="495" height="495" xmlns="http://www.w3.org/2000/svg">
 <g>
  <title>background</title>
  <rect x="-1" y="-1" width="497" height="497" id="canvas_background" fill="none"/>
 </g>

 <g>
  <title>Layer 1</title>
  <g stroke="null" id="svg_1">
   <path stroke="null" d="m247.99067,491.98752c135.29599,0 245.00932,-109.68844 245.00932,-244.99065c0,-135.32088 -109.71333,-244.98443 -245.00932,-244.98443c-135.30221,0 -244.99065,109.66355 -244.99065,244.98443c0,135.30221 109.68844,244.99065 244.99065,244.99065zm94.28999,-128.63355c-3.96667,0 -6.66244,-1.36422 -10.36,-3.62444c-35.50866,-21.47444 -79.79533,-32.76311 -126.76066,-32.76311c-26.21889,0 -52.60577,3.35533 -77.29244,8.48711c-4.01644,0.87733 -9.04711,2.40956 -12.06644,2.40956c-9.31467,0 -15.49022,-7.37178 -15.49022,-15.39689c0,-10.28533 5.908,-15.41555 13.30622,-16.82955c30.27889,-6.90511 60.41311,-10.84689 91.71244,-10.84689c53.60133,0 101.36933,12.30911 142.47488,36.97089c6.12733,3.54822 9.70667,7.19756 9.70667,16.26955c0,8.85422 -7.17889,15.32378 -15.23044,15.32378zm26.70422,-64.84177c-5.32311,0 -8.65511,-2.142 -12.278,-4.25911c-39.86733,-23.64133 -95.09888,-39.34933 -155.56332,-39.34933c-31.03178,0 -57.81066,4.35244 -79.96955,10.23555c-4.788,1.33778 -7.46511,2.75178 -11.91711,2.75178c-10.528,0 -19.13955,-8.58667 -19.13955,-19.21422c0,-10.41133 5.06178,-17.58244 15.22889,-20.454c27.552,-7.56467 55.66866,-13.40578 96.59999,-13.40578c64.13711,0 126.18199,15.98333 174.94554,45.16555c8.16822,4.69467 11.18911,10.65244 11.18911,19.36355c0,10.60578 -8.442,19.166 -19.096,19.166zm-278.33243,-152.7851c34.94866,-10.29155 73.91222,-15.07955 116.30733,-15.07955c71.91955,0 147.62999,14.78711 202.91288,47.25777c7.44022,4.228 12.62022,10.57933 12.62022,22.25222c-0.02489,13.34822 -10.752,22.932 -23.13111,22.932c-4.96222,0 -7.92556,-1.21489 -12.59533,-3.76756c-44.36133,-26.586 -113.16822,-41.22378 -179.71488,-41.22378c-33.21733,0 -66.95111,3.38022 -97.86466,11.76778c-3.58089,0.87733 -8.05,2.67711 -12.57667,2.67711c-13.05578,0 -23.08133,-10.33511 -23.08133,-23.42355c0.00156,-13.3 8.246,-20.76511 17.12355,-23.39244z" fill="#65D36E" id="svg_4"/>
  </g>
 </g>
</svg>